# xmcd
#
# Track frame offsets: 
#        150
#        12330
#        24260
#        40612
#        59107
#        76247
#        87230
#        100180
#        112080
#        125080
#        140885
#        191517
#
# Disc length: 2684 seconds
#
# Revision: 3
# Processed by: cddbd v1.5.2PL0 Copyright (c) Steve Scherf et al.
# Submitted via: ExactAudioCopy v1.0b3
#
DISCID=a20a7a0c
DTITLE=Junior Brown - Guit With It
DYEAR=1993
DGENRE=Country
TTITLE0=Doin' What Comes Easy To A Fool
TTITLE1=Highway Patrol
TTITLE2=So Close Yet So Far Away
TTITLE3=Sugarfoot Rag
TTITLE4=My Wife Thinks You're Dead
TTITLE5=You Didn't Have To Go All The Way
TTITLE6=Party Lights
TTITLE7=Names And Addresses
TTITLE8=Still Life With Rose
TTITLE9=Holding Pattern
TTITLE10=Guit-Steel Blues
TTITLE11=The Gal From Oklahoma
EXTD=Produced by Junior Brown\n\nPersonnel:\nJunior Brown: vocals, ele
EXTD=ctric guitar, steel guitar, piano, acoustic guitar\nTanya Rae Bro
EXTD=wn: acoustic rhythm guitar, vocals\nSteve Layne, Bobby Bellemans 
EXTD=and Spencer Starnes: bass, background vocals\nBarry "Frosty" Smit
EXTD=h, Tom Lewis and Billy Nado: drums\nJimmy Vaughn: electric guitar
EXTD=on "My Wife Thinks You're Dead"\n\nRecorded by Struart Sullivan 
EXTD=at Arlyn Studio, Austin, TX - Spencer Starnes and\nBobby Arnold a
EXTD=t  Bee Creek Studio, Austin, TX\nMastered by Denny Purcell at Ger
EXTD=oetwon Masters, Nashville, TN 
EXTT0=
EXTT1=
EXTT2=
EXTT3=
EXTT4=
EXTT5=
EXTT6=
EXTT7=
EXTT8=
EXTT9=
EXTT10=
EXTT11=
PLAYORDER=
